HIERARCHY
ROOT pelvis
{
	OFFSET 0.00 0.00 0.00
	CHANNELS 6 Xposition Yposition Zposition Xrotation Yrotation Zrotation
	JOINT lfemur
	{
		OFFSET 0.00000 3.26371 0.00000
		CHANNELS 3 Xrotation Yrotation Zrotation
		JOINT ltibia
		{
			OFFSET 0.00000 0.00000 -17.39272
			CHANNELS 3 Xrotation Yrotation Zrotation
			JOINT lfoot
			{
				OFFSET 0.00000 0.00000 -17.72520
				CHANNELS 3 Xrotation Yrotation Zrotation
				JOINT ltoes
				{
					OFFSET 4.21806 0.00000 0.00000
					CHANNELS 3 Xrotation Yrotation Zrotation
				}
			}
		}
	}
	JOINT rfemur
	{
		OFFSET 0.00000 -3.26371 0.00000
		CHANNELS 3 Xrotation Yrotation Zrotation
		JOINT rtibia
		{
			OFFSET 0.00000 0.00000 -17.39272
			CHANNELS 3 Xrotation Yrotation Zrotation
			JOINT rfoot
			{
				OFFSET 0.00000 0.00000 -17.72520
				CHANNELS 3 Xrotation Yrotation Zrotation
				JOINT rtoes
				{
					OFFSET 4.21806 0.00000 0.00000
					CHANNELS 3 Xrotation Yrotation Zrotation
				}
			}
		}
	}
	JOINT thorax
	{
		OFFSET -1.96850 0.00000 6.16593
		CHANNELS 6 Xposition Yposition Zposition Xrotation Yrotation Zrotation
		JOINT head
		{
			OFFSET 0.00000 0.00000 18.21355
			CHANNELS 6 Xposition Yposition Zposition Xrotation Yrotation Zrotation
		}
		JOINT lclavicle
		{
			OFFSET 0.00000 0.00000 15.13875
			CHANNELS 3 Xrotation Yrotation Zrotation
			JOINT lhumerus
			{
				OFFSET 0.00000 7.18963 -1.52650
				CHANNELS 3 Xrotation Yrotation Zrotation
				JOINT lradius
				{
					OFFSET 0.00000 0.00000 -10.12096
					CHANNELS 3 Xrotation Yrotation Zrotation
					JOINT lhand
					{
						OFFSET 0.00000 0.00000 -10.45726
						CHANNELS 3 Xrotation Yrotation Zrotation
					}
				}
			}
		}
		JOINT rclavicle
		{
			OFFSET 0.00000 0.00000 15.13875
			CHANNELS 3 Xrotation Yrotation Zrotation
			JOINT rhumerus
			{
				OFFSET 0.00000 -7.18963 -1.52650
				CHANNELS 3 Xrotation Yrotation Zrotation
				JOINT rradius
				{
					OFFSET 0.00000 0.00000 -10.12096
					CHANNELS 3 Xrotation Yrotation Zrotation
					JOINT rhand
					{
						OFFSET 0.00000 0.00000 -10.45726
						CHANNELS 3 Xrotation Yrotation Zrotation
					}
				}
			}
		}
	}
}
MOTION
Frames: 7
Frame Time: 0.008333
 26.5566 -0.9778 22.0146 0.9924 10.8659 3.2786 18.9630 -74.4680 20.4532 -180.0000 70.7488 180.0000 -0.0000 -20.7727 8.9052 0.0000 -31.0889 -0.0000 -32.2166 -71.9338 -27.6381 -180.0000 68.9093 180.0000 0.0000 -21.2116 -6.4369 0.0000 -30.5529 -0.0000 27.8008 -1.2186 27.4632 -0.0125 -4.9798 3.2965 29.1520 -1.5742 46.0584 -1.3027 2.8961 -3.0456 -12.6378 0.0000 -30.0503 72.7102 -49.7602 58.1602 0.0000 -81.7302 -52.3137 -2.7726 -6.6026 0.0000 5.3864 -0.0000 22.5074 -82.6313 -38.3873 -57.9896 0.0000 -88.1314 39.5600 22.8933 -9.8620 -0.0000
 26.5566 -0.9795 22.0135 0.9935 10.8667 3.2794 18.9714 -74.4711 20.4599 -180.0000 70.7472 180.0000 -0.0000 -20.7798 8.9174 0.0000 -31.0798 -0.0000 -32.2186 -71.9352 -27.6435 -180.0000 68.9096 180.0000 -0.0000 -21.2183 -6.4398 0.0000 -30.5585 -0.0000 27.8013 -1.2217 27.4620 -0.0114 -4.9810 3.2988 29.1517 -1.5794 46.0545 -1.2966 2.9075 -3.0230 -12.6503 -0.0000 -30.0465 72.7027 -49.7599 58.1621 0.0000 -81.7332 -52.3526 -2.6331 -6.5774 -0.0000 5.3773 0.0000 22.5063 -82.6437 -38.3838 -58.0023 0.0000 -88.1271 39.5202 22.8638 -9.8758 0.0000
 26.5551 -0.9875 22.0058 0.9899 10.8714 3.2879 19.0784 -74.4982 20.5503 -180.0000 70.7157 180.0000 -0.0000 -20.7984 8.8873 0.0000 -30.9918 -0.0000 -32.2130 -71.9669 -27.6517 -180.0000 68.8714 180.0000 -0.0000 -21.2354 -6.4568 0.0000 -30.5230 -0.0000 27.8023 -1.2266 27.4567 -0.0190 -4.9926 3.3009 29.1512 -1.5785 46.0528 -1.2742 2.9284 -3.0680 -12.6337 -0.0000 -30.0473 72.7068 -49.7742 58.1835 0.0000 -81.7091 -52.3231 -2.6647 -6.6376 0.0000 5.3662 0.0000 22.5001 -82.6347 -38.3923 -58.0487 0.0000 -88.1304 39.5752 22.9133 -9.9027 0.0000
 26.5550 -0.9888 22.0049 0.9909 10.8727 3.2879 19.0716 -74.5018 20.5392 -180.0000 70.7144 180.0000 -0.0000 -20.8011 8.8943 0.0000 -31.0123 -0.0000 -32.2117 -71.9691 -27.6514 -180.0000 68.8714 180.0000 -0.0000 -21.2386 -6.4572 0.0000 -30.5339 -0.0000 27.8025 -1.2294 27.4553 -0.0171 -4.9932 3.3030 29.1509 -1.5834 46.0485 -1.2687 2.9324 -3.0476 -12.6428 -0.0000 -30.0435 72.7008 -49.7720 58.1831 0.0000 -81.7144 -52.3705 -2.5978 -6.6144 -0.0000 5.3586 0.0000 22.4990 -82.6464 -38.3881 -58.0579 0.0000 -88.1301 39.5409 22.8702 -9.9121 0.0000
 26.5516 -0.9954 21.9986 0.9860 10.8815 3.2936 19.1456 -74.5373 20.5968 -180.0000 70.6908 180.0000 -0.0000 -20.7964 8.8947 0.0000 -30.9873 -0.0000 -32.1919 -72.0080 -27.6420 -180.0000 68.8432 180.0000 0.0000 -21.2358 -6.4922 0.0000 -30.5335 -0.0000 27.8023 -1.2336 27.4505 -0.0212 -5.0006 3.3050 29.1536 -1.5809 46.0447 -1.2386 2.9082 -3.0915 -12.6208 -0.0000 -30.0459 72.7057 -49.7768 58.1949 0.0000 -81.7197 -52.3162 -2.6756 -6.6011 -0.0000 5.3431 -0.0000 22.4920 -82.6480 -38.3874 -58.0904 -0.0000 -88.1430 39.5619 22.8845 -9.8979 0.0000
 26.5514 -0.9966 21.9979 0.9869 10.8829 3.2938 19.1247 -74.5419 20.5677 -180.0000 70.6879 180.0000 -0.0000 -20.7994 8.8969 0.0000 -31.0032 -0.0000 -32.1818 -72.0117 -27.6303 -180.0000 68.8413 180.0000 -0.0000 -21.2384 -6.4868 0.0000 -30.5437 -0.0000 27.8023 -1.2361 27.4496 -0.0194 -5.0013 3.3066 29.1528 -1.5856 46.0413 -1.2329 2.9110 -3.0740 -12.6299 -0.0000 -30.0432 72.6964 -49.7746 58.1911 0.0000 -81.7225 -52.3784 -2.6282 -6.6158 -0.0000 5.3369 0.0000 22.4909 -82.6569 -38.3837 -58.0980 0.0000 -88.1388 39.5355 22.8609 -9.9097 -0.0000
 26.5477 -1.0034 21.9923 0.9808 10.8941 3.3031 19.1758 -74.5808 20.6006 -180.0000 70.6696 180.0000 -0.0000 -20.7963 8.9140 0.0000 -30.9729 -0.0000 -32.1553 -72.0533 -27.6172 -180.0000 68.8164 180.0000 0.0000 -21.2478 -6.5367 0.0000 -30.5167 -0.0000 27.8013 -1.2401 27.4459 -0.0240 -5.0090 3.3063 29.1528 -1.5825 46.0390 -1.1997 2.9037 -3.1258 -12.6079 -0.0000 -30.0533 72.6968 -49.7708 58.1885 0.0000 -81.7351 -52.3193 -2.6878 -6.5819 0.0000 5.3260 -0.0000 22.4804 -82.6550 -38.3834 -58.1215 0.0000 -88.1394 39.5549 22.8213 -9.9399 0.0000
